<svg aria-hidden="true" style="position: absolute; width: 0; height: 0; overflow: hidden;" version="1.1" xmlns="http://www.w3.org/2000/svg" xmlns:xlink="http://www.w3.org/1999/xlink">
<defs>
<symbol id="icon-sun-day-weather-symbol_icon-iconscom_73146" viewBox="0 0 32 32">
<path d="M4 15h-3c-0.552 0-1 0.448-1 1s0.448 1 1 1h3c0.552 0 1-0.448 1-1s-0.448-1-1-1zM16 5c0.552 0 1-0.448 1-1v-3c0-0.552-0.448-1-1-1s-1 0.448-1 1v3c0 0.552 0.448 1 1 1zM25.621 7.78l2.101-2.101c0.387-0.387 0.387-1.014 0-1.401s-1.014-0.387-1.401 0l-2.101 2.101c-0.387 0.387-0.387 1.014 0 1.401s1.014 0.387 1.401 0zM7.41 23.19l-2.101 2.101c-0.387 0.387-0.387 1.014 0 1.401s1.014 0.387 1.401 0l2.101-2.101c0.387-0.387 0.387-1.014 0-1.401s-1.014-0.387-1.401 0zM6.808 8.222c0.391 0.391 1.024 0.391 1.414 0s0.39-1.024 0-1.414l-2.121-2.122c-0.391-0.391-1.024-0.391-1.414 0-0.391 0.391-0.391 1.024 0 1.414l2.121 2.122zM16 27c-0.552 0-1 0.448-1 1v3c0 0.552 0.448 1 1 1s1-0.448 1-1v-3c0-0.552-0.448-1-1-1zM25.192 23.778c-0.391-0.391-1.024-0.391-1.414 0s-0.391 1.024 0 1.414l2.121 2.121c0.391 0.391 1.024 0.391 1.414 0s0.391-1.024 0-1.414l-2.121-2.121zM31 15h-3c-0.552 0-1 0.448-1 1s0.448 1 1 1h3c0.552 0 1-0.448 1-1s-0.448-1-1-1zM16 6.994c-4.974 0-9.006 4.032-9.006 9.006s4.032 9.006 9.006 9.006 9.006-4.032 9.006-9.006-4.032-9.006-9.006-9.006zM16 22.998c-3.865 0-6.998-3.133-6.998-6.998s3.133-6.998 6.998-6.998 6.998 3.133 6.998 6.998-3.133 6.998-6.998 6.998z"></path>
</symbol>
<symbol id="icon-moon-phase-black-crescent-shape_icon-iconscom_72982" viewBox="0 0 32 32">
<path d="M16.256 16c0-6.901 4.479-12.764 10.744-15.009-1.757-0.63-3.647-0.991-5.628-0.991-9.042 0-16.372 7.164-16.372 16 0 8.837 7.33 16 16.372 16 1.981 0 3.871-0.361 5.628-0.991-6.265-2.245-10.744-8.108-10.744-15.009z"></path>
</symbol>
</defs>
</svg>
